<svg width="35" height="43" viewBox="0 0 35 43" fill="none" xmlns="http://www.w3.org/2000/svg">
<path fill-rule="evenodd" clip-rule="evenodd" d="M1.43333 11.4667H8.60001V16.9033L5.9433 19.5599C5.80891 19.6943 5.73334 19.8766 5.73334 20.0667V29.3834C5.73334 29.4276 5.73749 29.4717 5.7457 29.515C5.75275 29.5521 5.76276 29.5886 5.77568 29.6241L9.31667 39.5399V42.2833C9.31667 42.6791 9.63756 43 10.0333 43H18.6333C19.0291 43 19.35 42.6791 19.35 42.2833V31.5333C19.3503 31.4364 19.3304 31.3401 19.2919 31.2509L17.5699 27.2333H25.0833C25.4791 27.2333 25.8 26.9124 25.8 26.5167V11.4667H32.9667V5.73334H34.4V0H0V5.73334H1.43333V11.4667ZM17.9167 41.5667H10.75V40.1334H17.9167V41.5667ZM17.9167 38.7H10.5351L7.16667 29.2595V20.3634L8.60001 18.9301V26.5167C8.60001 26.9124 8.92088 27.2333 9.31667 27.2333H12.1833V30.1H13.6167V22.9333C13.6167 22.5375 13.9376 22.2167 14.3333 22.2167H15.05C15.4458 22.2167 15.7667 22.5375 15.7667 22.9333V26.5167C15.7663 26.6136 15.7863 26.7098 15.8248 26.7991L17.9167 31.6803V38.7ZM24.3667 25.8H17.2V22.9333C17.2 21.746 16.2373 20.7833 15.05 20.7833H14.3333C13.8028 20.7851 13.2919 20.9846 12.9 21.3422V20.0667H11.4667V24.3666H12.1833V25.8H10.0333V8.60001H11.4667V18.6333H12.9V11.663C13.9841 12.9045 15.5518 13.6167 17.2 13.6167C18.8482 13.6167 20.4159 12.9045 21.5 11.663V18.6333H22.9333V8.60001H24.3667V25.8ZM12.9595 8.60001H21.4405C21.0923 10.6706 19.2996 12.1872 17.2 12.1872C15.1004 12.1872 13.3077 10.6706 12.9595 8.60001ZM31.5333 10.0333H25.8V8.60001H27.2333V7.16666H7.16667V8.60001H8.60001V10.0333H2.86667V5.73334H31.5333V10.0333ZM1.43333 1.43332H32.9667V4.29999H1.43333V1.43332ZM4.29993 7.16666H5.73326V8.59998H4.29993V7.16666ZM30.1 7.16666H28.6666V8.59998H30.1V7.16666ZM21.5 22.9333H18.6333V24.3666H22.9333V20.0667H21.5V22.9333ZM17.1999 15.05C18.3873 15.05 19.3499 16.0127 19.3499 17.2C19.3499 18.3873 18.3873 19.35 17.1999 19.35C16.0126 19.35 15.0499 18.3873 15.0499 17.2C15.0499 16.0127 16.0126 15.05 17.1999 15.05ZM16.4833 17.2C16.4833 17.5958 16.8042 17.9167 17.1999 17.9167C17.5957 17.9167 17.9166 17.5958 17.9166 17.2C17.9166 16.8042 17.5957 16.4833 17.1999 16.4833C16.8042 16.4833 16.4833 16.8042 16.4833 17.2Z" fill="white"/>
</svg>
