<svg width="52" height="42" viewBox="0 0 52 42" fill="none" xmlns="http://www.w3.org/2000/svg">
<path d="M12.1874 17.7445C12.9249 17.7445 13.5249 18.2469 13.5249 18.8644C13.5249 19.4253 13.9796 19.8801 14.5405 19.8801C15.1015 19.8801 15.5562 19.4253 15.5562 18.8644C15.5562 17.4579 14.5657 16.2638 13.2031 15.8599V15.7188C13.2031 15.1579 12.7484 14.7031 12.1874 14.7031C11.6265 14.7031 11.1718 15.1579 11.1718 15.7188V15.8599C9.80916 16.2639 8.81873 17.4579 8.81873 18.8644C8.81873 20.6021 10.3299 22.0156 12.1874 22.0156C12.9249 22.0156 13.5249 22.518 13.5249 23.1355C13.5249 23.753 12.9249 24.2554 12.1874 24.2554C11.45 24.2554 10.85 23.753 10.85 23.1355C10.85 22.5746 10.3953 22.1198 9.83435 22.1198C9.27342 22.1198 8.81873 22.5746 8.81873 23.1355C8.81873 24.542 9.80916 25.7361 11.1718 26.14V26.2813C11.1718 26.8421 11.6265 27.2969 12.1874 27.2969C12.7484 27.2969 13.2031 26.8421 13.2031 26.2813V26.1401C14.5657 25.7361 15.5562 24.5421 15.5562 23.1356C15.5562 21.3979 14.045 19.9844 12.1874 19.9844C11.45 19.9844 10.85 19.482 10.85 18.8646C10.85 18.2471 11.45 17.7445 12.1874 17.7445Z" fill="white"/>
<path d="M24.375 21C24.375 19.4563 24.09 17.9515 23.5279 16.5275C23.3219 16.0057 22.7322 15.7498 22.2103 15.9556C21.6886 16.1615 21.4325 16.7514 21.6385 17.2732C22.1065 18.4588 22.3438 19.7127 22.3438 21C22.3438 26.6003 17.7877 31.1562 12.1875 31.1562C6.58734 31.1562 2.03125 26.6001 2.03125 21C2.03125 15.3998 6.58734 10.8437 12.1875 10.8437C13.4671 10.8437 14.714 11.0784 15.8937 11.5409C16.4159 11.7458 17.0052 11.4884 17.21 10.9661C17.4148 10.4439 17.1575 9.85462 16.6352 9.64987C15.2183 9.09423 13.7219 8.81249 12.1875 8.81249C5.46731 8.81249 0 14.2798 0 21C0 27.7202 5.46731 33.1875 12.1875 33.1875C18.9077 33.1875 24.375 27.7202 24.375 21Z" fill="white"/>
<path d="M39.8125 17.7445C40.5499 17.7445 41.1499 18.2469 41.1499 18.8644C41.1499 19.4253 41.6046 19.8801 42.1656 19.8801C42.7265 19.8801 43.1812 19.4253 43.1812 18.8644C43.1812 17.4579 42.1907 16.2638 40.8281 15.8599V15.7188C40.8281 15.1579 40.3734 14.7031 39.8125 14.7031C39.2515 14.7031 38.7968 15.1579 38.7968 15.7188V15.8599C37.4342 16.2639 36.4437 17.4579 36.4437 18.8644C36.4437 20.6021 37.9549 22.0156 39.8125 22.0156C40.5499 22.0156 41.1499 22.518 41.1499 23.1355C41.1499 23.753 40.5499 24.2554 39.8125 24.2554C39.075 24.2554 38.475 23.753 38.475 23.1355C38.475 22.5746 38.0203 22.1198 37.4594 22.1198C36.8984 22.1198 36.4437 22.5746 36.4437 23.1355C36.4437 24.542 37.4342 25.7361 38.7968 26.14V26.2813C38.7968 26.8421 39.2515 27.2969 39.8125 27.2969C40.3734 27.2969 40.8281 26.8421 40.8281 26.2813V26.1401C42.1907 25.7361 43.1812 24.5421 43.1812 23.1356C43.1812 21.3979 41.67 19.9844 39.8125 19.9844C39.075 19.9844 38.475 19.482 38.475 18.8646C38.475 18.2471 39.075 17.7445 39.8125 17.7445Z" fill="white"/>
<path d="M39.8125 8.81249C33.0923 8.81249 27.625 14.2798 27.625 21C27.625 27.7202 33.0923 33.1875 39.8125 33.1875C46.5327 33.1875 52 27.7202 52 21C52 14.2798 46.5327 8.81249 39.8125 8.81249ZM39.8125 31.1562C34.2123 31.1562 29.6562 26.6003 29.6562 21C29.6562 15.3997 34.2123 10.8437 39.8125 10.8437C45.4127 10.8437 49.9688 15.3997 49.9688 21C49.9688 26.6003 45.4127 31.1562 39.8125 31.1562Z" fill="white"/>
<path d="M34.6953 35.8851C34.2987 35.4886 33.6556 35.4886 33.2589 35.8851C32.8623 36.2817 32.8623 36.9248 33.2589 37.3215L33.6657 37.7283H15.8821C15.3212 37.7283 14.8665 38.1831 14.8665 38.7439C14.8665 39.3047 15.3212 39.7595 15.8821 39.7595H33.6657L33.2589 40.1663C32.8623 40.5629 32.8623 41.206 33.2589 41.6027C33.4573 41.8009 33.7172 41.9001 33.9771 41.9001C34.237 41.9001 34.497 41.8009 34.6952 41.6027L36.8357 39.4621C37.2323 39.0655 37.2323 38.4224 36.8357 38.0257L34.6953 35.8851Z" fill="white"/>
<path d="M17.3045 6.11479C17.5029 6.31304 17.7628 6.41227 18.0227 6.41227C18.2826 6.41227 18.5426 6.31304 18.7408 6.11479C19.1374 5.71819 19.1374 5.0751 18.7408 4.67839L18.3341 4.27164H36.1177C36.6786 4.27164 37.1333 3.81684 37.1333 3.25601C37.1333 2.69518 36.6786 2.24038 36.1177 2.24038H18.3341L18.7408 1.83363C19.1374 1.43703 19.1374 0.793932 18.7408 0.397228C18.3442 0.000728518 17.7011 0.000728518 17.3044 0.397228L15.1639 2.53776C14.7673 2.93436 14.7673 3.57746 15.1639 3.97416L17.3045 6.11479Z" fill="white"/>
<path d="M19.369 12.3823C19.1801 12.5712 19.0714 12.8333 19.0714 13.1004C19.0714 13.3675 19.1801 13.6295 19.369 13.8184C19.5579 14.0072 19.8199 14.116 20.087 14.116C20.3541 14.116 20.6162 14.0073 20.8051 13.8184C20.994 13.6295 21.1027 13.3675 21.1027 13.1004C21.1027 12.8333 20.994 12.5712 20.8051 12.3823C20.6162 12.1925 20.3541 12.0847 20.087 12.0847C19.8199 12.0847 19.5579 12.1925 19.369 12.3823Z" fill="white"/>
</svg>
